<?xml version="1.0" standalone="no"?>
<!DOCTYPE svg PUBLIC "-//W3C//DTD SVG 20010904//EN"
 "http://www.w3.org/TR/2001/REC-SVG-20010904/DTD/svg10.dtd">
<svg version="1.0" xmlns="http://www.w3.org/2000/svg"
 width="153.000000pt" height="153.000000pt" viewBox="0 0 153.000000 153.000000"
 preserveAspectRatio="xMidYMid meet">
<metadata>
Created by potrace 1.11, written by Peter Selinger 2001-2013
</metadata>
<g transform="translate(0.000000,153.000000) scale(0.100000,-0.100000)"
fill="#000000" stroke="none">
<path d="M580 1505 c-210 -44 -378 -155 -474 -314 -151 -248 -122 -577 69
-788 62 -68 358 -318 414 -350 112 -62 248 -62 357 2 148 87 418 340 479 449
36 64 78 166 69 166 -3 0 0 9 6 21 15 28 20 183 8 250 -46 254 -258 476 -528
551 -103 29 -296 35 -400 13z"/>
</g>
</svg>
